# xmcd
#
# Track frame offsets:
#	182
#	15960
#	41610
#	69027
#
# Disc length: 1242 seconds
# Revision: 0
# Processed by: cddbd v1.5.2PL0 Copyright (c) Steve Scherf et al.
# Submitted via: dBpowerAMP V12.0
#
DISCID=2004d804
DTITLE=Black Box - Open Your Eyes
DYEAR=1991
DGENRE=House
TTITLE0=Open Your Eyes [Valerio's Mix Edit]
TTITLE1=Open Your Eyes [Valerio's Mix]
TTITLE2=Open Your Eyes [Daniele's Mix]
TTITLE3=Open Your Eyes [Mirko's Mix]
EXTD=
EXTT0=
EXTT1=
EXTT2=
EXTT3=
PLAYORDER=
